<svg xmlns="http://www.w3.org/2000/svg" width="1024" height="1024" viewBox="0 0 1024 1024">
  <defs>
    <linearGradient id="bg" x1="0" y1="0" x2="1" y2="1">
      <stop offset="0" stop-color="#F6B259"/>
      <stop offset="1" stop-color="#9C3B12"/>
    </linearGradient>
    <linearGradient id="sheen" x1="0" y1="0" x2="0" y2="1">
      <stop offset="0" stop-color="#ffffff" stop-opacity="0.18"/>
      <stop offset="0.55" stop-color="#ffffff" stop-opacity="0"/>
    </linearGradient>
  </defs>
  <!-- macOS squircle (~824 content in 1024 canvas, transparent margin) -->
  <rect x="100" y="100" width="824" height="824" rx="185" fill="url(#bg)"/>
  <rect x="100" y="100" width="824" height="824" rx="185" fill="url(#sheen)"/>
  <!-- aardwolf face (A1, rounded ears, triangle nose); 100-unit glyph scaled in -->
  <g transform="translate(232,240) scale(5.6)">
    <g fill="#FBEFDD">
      <path d="M33 46 C27 30 26 20 31 14 C35 10 41 22 49 42 Z"/>
      <path d="M67 46 C73 30 74 20 69 14 C65 10 59 22 51 42 Z"/>
      <path d="M46 42 L50 25 L54 42 Z"/>
      <path d="M30 46 Q50 39 70 46 L61 73 Q50 87 39 73 Z"/>
    </g>
    <circle cx="42" cy="55" r="3.2" fill="#7A360F"/>
    <circle cx="58" cy="55" r="3.2" fill="#7A360F"/>
    <path d="M45 68 h10 l-5 8 Z" fill="#7A360F"/>
  </g>
</svg>
